<?xml version="1.0" standalone="no"?>
<!DOCTYPE svg PUBLIC "-//W3C//DTD SVG 20010904//EN"
 "http://www.w3.org/TR/2001/REC-SVG-20010904/DTD/svg10.dtd">
<svg version="1.0" xmlns="http://www.w3.org/2000/svg"
 width="512.000000pt" height="512.000000pt" viewBox="0 0 512.000000 512.000000"
 preserveAspectRatio="xMidYMid meet">

<g transform="translate(0.000000,512.000000) scale(0.100000,-0.100000)"
fill="#000000" stroke="none">
<path d="M2094 4668 c45 -79 628 -1089 1295 -2245 667 -1157 1216 -2103 1220
-2103 8 1 442 758 478 835 26 55 28 69 28 175 -1 100 -4 123 -26 176 -25 59
-1712 3006 -1770 3090 -37 55 -114 122 -176 156 -102 56 -124 58 -650 58
l-482 0 83 -142z"/>
<path d="M1577 4073 c-210 -361 -1138 -1975 -1143 -1986 -6 -16 77 -17 1151
-17 1016 0 1156 2 1151 15 -7 19 -1136 1977 -1146 1988 -4 5 -10 5 -13 0z"/>
<path d="M12 1318 c8 -13 115 -198 239 -412 245 -425 279 -472 394 -533 129
-67 15 -63 1642 -63 810 0 1473 2 1473 4 0 2 -132 233 -293 513 l-294 508
-1588 3 -1587 2 14 -22z"/>
</g>
</svg>
